<svg width="24.000000" height="24.000000" viewBox="0 0 24 24" fill="none" xmlns="http://www.w3.org/2000/svg" xmlns:xlink="http://www.w3.org/1999/xlink">
	<desc>
			Created with Pixso.
	</desc>
	<defs>
		<clipPath id="clip3_1116">
			<rect id="facebook" rx="0.000000" width="23.000000" height="23.000000" transform="translate(0.500000 0.500000)" fill="white" fill-opacity="0"/>
		</clipPath>
	</defs>
	<g clip-path="url(#clip3_1116)">
		<path id="Vector" d="M14 2C12.67 2 11.4 2.52 10.46 3.46C9.52 4.4 9 5.67 9 7L9 10L6 10L6 14L9 14L9 22L13 22L13 14L16 14L17 10L13 10L13 7C13 6.73 13.1 6.48 13.29 6.29C13.48 6.1 13.73 6 14 6L17 6L17 2L14 2Z" stroke="#181C29" stroke-opacity="1.000000" stroke-width="1.500000" stroke-linejoin="round"/>
	</g>
</svg>
