<svg width="24.000000" height="24.000000" viewBox="0 0 24 24" fill="none" xmlns="http://www.w3.org/2000/svg" xmlns:xlink="http://www.w3.org/1999/xlink">
	<desc>
			Created with Pixso.
	</desc>
	<defs>
		<clipPath id="clip3_1119">
			<rect id="instagram" rx="0.000000" width="23.000000" height="23.000000" transform="translate(0.500000 0.500000)" fill="white" fill-opacity="0"/>
		</clipPath>
	</defs>
	<g clip-path="url(#clip3_1119)">
		<path id="Vector" d="M12 16C9.79 16 8 14.2 8 12C8 9.79 9.79 8 12 8C14.2 8 16 9.79 16 12C16 14.2 14.2 16 12 16Z" stroke="#181C29" stroke-opacity="1.000000" stroke-width="1.500000" stroke-linejoin="round"/>
		<path id="Vector" d="M3 16C3 18.76 5.23 21 8 21L16 21C18.76 21 21 18.76 21 16L21 8C21 5.23 18.76 3 16 3L8 3C5.23 3 3 5.23 3 8L3 16Z" stroke="#181C29" stroke-opacity="1.000000" stroke-width="1.500000"/>
		<path id="Vector" d="M17.5 6.5L17.51 6.5" stroke="#181C29" stroke-opacity="1.000000" stroke-width="1.500000" stroke-linejoin="round" stroke-linecap="round"/>
	</g>
</svg>
