<svg width="80.000000" height="80.000000" viewBox="0 0 80 80" fill="none" xmlns="http://www.w3.org/2000/svg" xmlns:xlink="http://www.w3.org/1999/xlink">
	<desc>
			Created with Pixso.
	</desc>
	<defs>
		<clipPath id="clip3_712">
			<rect rx="0.000000" width="79.000000" height="79.000000" transform="translate(0.500000 0.500000)" fill="white" fill-opacity="0"/>
		</clipPath>
	</defs>
	<g clip-path="url(#clip3_712)">
		<path d="M66.3 78.71L12.39 78.71C12.39 78.71 18.11 68.84 26.74 70.08C35.36 71.31 34.5 75.04 41.26 73.82C46.09 72.95 44.93 71.39 50.6 69.37C58.58 66.53 66.3 78.71 66.3 78.71Z" fill="#F4F1E3" fill-opacity="1.000000" fill-rule="nonzero"/>
		<path d="M72.78 18.95C72.73 18.95 72.68 18.92 72.65 18.88C72.6 18.81 72.61 18.7 72.68 18.65C72.79 18.56 73.48 17.85 73.81 17.47C73.43 17.52 72.72 17.65 72.08 17.79C71.99 17.81 71.91 17.75 71.89 17.66C71.87 17.57 71.92 17.49 72.01 17.47C74.2 17 74.23 17.09 74.28 17.25C74.36 17.52 72.89 18.9 72.88 18.91C72.85 18.94 72.81 18.95 72.78 18.95Z" fill="#241726" fill-opacity="1.000000" fill-rule="nonzero"/>
		<path d="M70.25 18.99C70.25 18.99 70.41 16.43 71.74 16.89C73.59 17.54 74.44 22.31 70.95 23.34C67.46 24.38 66.2 21.5 66.2 21.5L68.08 21.07C68.08 21.07 66.73 19.86 66.86 18.87C66.99 17.87 68.04 18.75 68.04 18.75C68.04 18.75 66.81 16.46 67.83 16.39C68.85 16.32 70.25 18.99 70.25 18.99Z" fill="#B1739A" fill-opacity="1.000000" fill-rule="nonzero"/>
		<path d="M71.82 18.69C71.47 18.69 71.12 18.17 71.02 18C70.97 17.92 71 17.82 71.08 17.78C71.15 17.73 71.25 17.75 71.3 17.83C71.44 18.06 71.65 18.3 71.78 18.35C71.78 18.21 71.69 17.88 71.56 17.58C71.52 17.49 71.56 17.4 71.65 17.36C71.73 17.33 71.83 17.37 71.86 17.45C72 17.76 72.2 18.33 72.05 18.56C72.01 18.64 71.94 18.68 71.85 18.69C71.84 18.69 71.83 18.69 71.82 18.69Z" fill="#241726" fill-opacity="1.000000" fill-rule="nonzero"/>
		<path d="M68.67 21.07C68.63 21.07 68.6 21.05 68.56 21.03C68.46 20.94 67.59 20.2 67.65 19.58C67.67 19.38 67.79 19.31 67.86 19.28C68.06 19.2 68.35 19.34 68.59 19.5C68.48 18.87 68.54 18.52 68.77 18.44C68.87 18.41 69.16 18.32 70.25 20.01C70.3 20.08 70.28 20.19 70.2 20.24C70.12 20.28 70.02 20.26 69.97 20.19C69.58 19.57 69.06 18.89 68.86 18.77C68.84 18.9 68.89 19.39 69.01 19.87C69.03 19.93 69 20.01 68.93 20.04C68.87 20.08 68.8 20.08 68.74 20.03C68.45 19.77 68.08 19.56 67.98 19.58C67.98 19.59 67.98 19.6 67.98 19.62C67.94 19.95 68.45 20.5 68.78 20.78C68.84 20.83 68.85 20.94 68.8 21.01C68.76 21.05 68.72 21.07 68.67 21.07Z" fill="#241726" fill-opacity="1.000000" fill-rule="nonzero"/>
		<path d="M70.21 22.75C69.7 22.75 69.34 22.65 69.31 22.64C69.22 22.62 69.17 22.53 69.19 22.44C69.21 22.35 69.3 22.3 69.39 22.33C69.41 22.33 70.68 22.67 71.66 22.03C72.25 21.65 72.62 20.98 72.76 20.06C72.77 19.97 72.86 19.91 72.95 19.93C73.04 19.94 73.1 20.02 73.09 20.11C72.93 21.13 72.51 21.87 71.84 22.31C71.3 22.66 70.69 22.75 70.21 22.75Z" fill="#241726" fill-opacity="1.000000" fill-rule="nonzero"/>
		<path d="M1.49 40.45C1.46 40.45 1.43 40.44 1.4 40.42C1.38 40.41 -0.09 39.02 0 38.75C0.05 38.59 0.07 38.51 2.26 38.98C2.35 39 2.41 39.08 2.39 39.17C2.37 39.26 2.28 39.31 2.2 39.3C1.56 39.16 0.85 39.03 0.47 38.97C0.8 39.35 1.49 40.07 1.6 40.16C1.67 40.21 1.68 40.32 1.62 40.39C1.59 40.43 1.54 40.45 1.49 40.45Z" fill="#241726" fill-opacity="1.000000" fill-rule="nonzero"/>
		<path d="M4.03 40.5C4.03 40.5 3.87 37.94 2.53 38.4C0.69 39.05 -0.17 43.81 3.33 44.85C6.82 45.88 8.08 43.01 8.08 43.01L6.2 42.58C6.2 42.58 7.54 41.37 7.42 40.37C7.29 39.38 6.24 40.26 6.24 40.26C6.24 40.26 7.47 37.96 6.45 37.9C5.43 37.83 4.03 40.5 4.03 40.5Z" fill="#B1739A" fill-opacity="1.000000" fill-rule="nonzero"/>
		<path d="M2.45 40.2C2.45 40.2 2.44 40.2 2.43 40.2C2.34 40.19 2.27 40.15 2.22 40.07C2.08 39.84 2.28 39.27 2.42 38.96C2.45 38.87 2.55 38.83 2.63 38.87C2.71 38.9 2.75 39 2.72 39.08C2.59 39.38 2.5 39.72 2.5 39.86C2.62 39.81 2.84 39.56 2.98 39.34C3.02 39.26 3.13 39.24 3.2 39.28C3.28 39.33 3.3 39.43 3.26 39.51C3.16 39.67 2.81 40.2 2.45 40.2Z" fill="#241726" fill-opacity="1.000000" fill-rule="nonzero"/>
		<path d="M5.61 42.57C5.56 42.57 5.51 42.55 5.48 42.51C5.42 42.45 5.43 42.34 5.5 42.28C5.83 42.01 6.33 41.46 6.3 41.13C6.3 41.1 6.29 41.08 6.29 41.08C6.2 41.06 5.84 41.28 5.54 41.54C5.48 41.58 5.4 41.59 5.34 41.55C5.28 41.52 5.25 41.44 5.27 41.37C5.38 40.92 5.44 40.46 5.4 40.29C5.19 40.43 4.69 41.1 4.31 41.69C4.26 41.77 4.16 41.79 4.08 41.74C4 41.69 3.98 41.59 4.03 41.52C5.12 39.82 5.41 39.92 5.51 39.95C5.74 40.03 5.8 40.38 5.68 41.01C5.93 40.85 6.22 40.71 6.42 40.79C6.49 40.81 6.6 40.89 6.63 41.09C6.69 41.71 5.81 42.45 5.71 42.54C5.68 42.56 5.65 42.57 5.61 42.57Z" fill="#241726" fill-opacity="1.000000" fill-rule="nonzero"/>
		<path d="M4.07 44.26C3.59 44.26 2.98 44.17 2.44 43.81C1.77 43.38 1.35 42.64 1.19 41.62C1.18 41.53 1.24 41.45 1.33 41.43C1.42 41.42 1.5 41.48 1.52 41.57C1.66 42.49 2.03 43.15 2.62 43.54C3.6 44.17 4.87 43.84 4.89 43.83C4.97 43.81 5.06 43.86 5.09 43.95C5.11 44.04 5.06 44.13 4.97 44.15C4.94 44.16 4.57 44.26 4.07 44.26Z" fill="#241726" fill-opacity="1.000000" fill-rule="nonzero"/>
		<path d="M9.5 17.75C9.5 17.75 10.51 14.75 10.95 15.06C11.38 15.37 11.27 15.89 11.27 15.89C11.27 15.89 12.53 14.26 13.21 14.66C13.9 15.06 13.23 15.87 13.23 15.87C13.23 15.87 15.35 14.37 15.68 15.15C16.01 15.94 14.11 17.54 14.11 17.54C14.11 17.54 15.21 16.86 15.43 17.79C15.66 18.71 13.82 18.93 13.7 18.93C13.59 18.93 14.3 18.9 14.09 19.51C13.87 20.12 8.06 20.43 9.5 17.75Z" fill="#51AEA5" fill-opacity="1.000000" fill-rule="nonzero"/>
		<path d="M6.84 21.04C6.84 21.04 4 22.45 3.92 21.93C3.83 21.4 4.27 21.11 4.27 21.11C4.27 21.11 2.23 21.37 2.03 20.61C1.82 19.85 2.87 19.74 2.87 19.74C2.87 19.74 0.31 19.31 0.63 18.52C0.95 17.73 3.43 17.94 3.43 17.94C3.43 17.94 2.17 17.64 2.66 16.83C3.15 16.01 4.62 17.16 4.7 17.24C4.78 17.32 4.25 16.84 4.83 16.56C5.42 16.28 9.75 20.16 6.84 21.04Z" fill="#51AEA5" fill-opacity="1.000000" fill-rule="nonzero"/>
		<path d="M10.22 20.57C10.22 20.57 12.86 22.32 12.45 22.66C12.04 23 11.56 22.76 11.56 22.76C11.56 22.76 12.81 24.39 12.25 24.95C11.69 25.51 11.08 24.66 11.08 24.66C11.08 24.66 11.99 27.09 11.15 27.21C10.3 27.33 9.24 25.07 9.24 25.07C9.24 25.07 9.61 26.31 8.66 26.29C7.71 26.28 7.97 24.43 8 24.32C8.03 24.21 7.88 24.92 7.34 24.55C6.81 24.19 8 18.49 10.22 20.57Z" fill="#51AEA5" fill-opacity="1.000000" fill-rule="nonzero"/>
		<path d="M10.94 18.7C10.63 18.64 10.32 18.65 10.04 18.73C10.17 17.76 9.53 16.84 8.55 16.64C7.53 16.42 6.52 17.08 6.31 18.11C6.18 18.72 6.37 19.33 6.76 19.76C6.08 19.93 5.52 20.48 5.36 21.21C5.15 22.24 5.8 23.24 6.83 23.45C7.85 23.67 8.86 23.01 9.07 21.99C9.09 21.92 9.1 21.85 9.1 21.78C9.37 22.09 9.73 22.32 10.16 22.41C11.18 22.63 12.19 21.97 12.4 20.95C12.62 19.92 11.96 18.92 10.94 18.7ZM8.67 20.32C8.67 20.34 8.66 20.36 8.66 20.38C8.65 20.36 8.64 20.35 8.62 20.33C8.64 20.33 8.65 20.32 8.67 20.32Z" fill="#D45A41" fill-opacity="1.000000" fill-rule="nonzero"/>
		<path d="M6.24 19.81C6.21 19.81 6.17 19.8 6.14 19.78C5.01 19.01 2.87 19.1 2.85 19.1C2.76 19.11 2.68 19.04 2.68 18.95C2.67 18.86 2.74 18.78 2.84 18.78C2.93 18.77 5.1 18.67 6.33 19.51C6.4 19.56 6.42 19.67 6.37 19.74C6.34 19.79 6.29 19.81 6.24 19.81Z" fill="#241726" fill-opacity="1.000000" fill-rule="nonzero"/>
		<path d="M10.94 18.87C10.86 18.87 10.79 18.81 10.78 18.73C10.76 18.64 10.82 18.56 10.9 18.54C11.6 18.41 12.81 16.88 13.22 16.3C13.27 16.22 13.38 16.2 13.45 16.26C13.52 16.31 13.54 16.41 13.49 16.49C13.33 16.71 11.92 18.68 10.97 18.86C10.96 18.87 10.95 18.87 10.94 18.87Z" fill="#241726" fill-opacity="1.000000" fill-rule="nonzero"/>
		<path d="M10 25.28C9.91 25.28 9.84 25.21 9.83 25.12C9.82 24.55 9.69 23 9.17 22.69C9.09 22.64 9.06 22.54 9.11 22.46C9.16 22.39 9.26 22.36 9.34 22.41C10.1 22.86 10.16 24.88 10.16 25.11C10.16 25.2 10.09 25.28 10 25.28C10 25.28 10 25.28 10 25.28Z" fill="#241726" fill-opacity="1.000000" fill-rule="nonzero"/>
		<path d="M10.08 18.73C9.99 18.7 9.9 18.74 9.86 18.83C9.86 18.83 9.48 19.85 8.66 20.01C8.63 20.01 8.61 20.03 8.59 20.05C8.55 20.02 8.51 19.99 8.46 19.96C7.82 19.6 7.28 19.48 6.85 19.61C6.48 19.72 6.33 19.97 6.32 20C6.28 20.08 6.31 20.17 6.39 20.22C6.47 20.26 6.56 20.23 6.61 20.15C6.61 20.15 6.7 19.99 6.95 19.92C7.19 19.85 7.61 19.86 8.3 20.25C9.17 20.74 8.92 21.9 8.91 21.95C8.89 22.04 8.95 22.13 9.04 22.15C9.05 22.15 9.06 22.15 9.07 22.15C9.15 22.15 9.21 22.1 9.23 22.02C9.24 21.97 9.46 20.97 8.87 20.29C9.76 20.02 10.16 18.98 10.17 18.94C10.2 18.85 10.16 18.76 10.08 18.73Z" fill="#241726" fill-opacity="1.000000" fill-rule="nonzero"/>
		<path d="M9.4 18.25C9.33 18.25 9.27 18.21 9.24 18.14C9.03 17.47 8.26 17.53 8.25 17.53C8.16 17.54 8.08 17.47 8.07 17.38C8.07 17.29 8.13 17.21 8.22 17.2C8.58 17.17 9.32 17.31 9.56 18.04C9.58 18.12 9.54 18.21 9.45 18.24C9.43 18.25 9.42 18.25 9.4 18.25Z" fill="#FBFCFF" fill-opacity="1.000000" fill-rule="nonzero"/>
		<path d="M11.88 20.68C11.81 20.68 11.74 20.63 11.72 20.56C11.59 20.06 10.87 19.76 10.86 19.76C10.78 19.72 10.74 19.63 10.77 19.54C10.81 19.46 10.9 19.42 10.99 19.46C11.02 19.47 11.86 19.82 12.04 20.47C12.06 20.56 12.01 20.65 11.92 20.67C11.91 20.67 11.89 20.68 11.88 20.68Z" fill="#FBFCFF" fill-opacity="1.000000" fill-rule="nonzero"/>
		<path d="M8.42 21.64C8.33 21.64 8.26 21.57 8.26 21.48C8.26 21.37 8.22 21.28 8.14 21.2C7.89 20.96 7.3 20.93 7.1 20.94C7.01 20.95 6.93 20.88 6.93 20.79C6.92 20.7 7 20.62 7.09 20.62C7.12 20.62 7.96 20.58 8.36 20.96C8.51 21.1 8.58 21.27 8.58 21.47C8.59 21.56 8.51 21.64 8.42 21.64C8.42 21.64 8.42 21.64 8.42 21.64Z" fill="#FBFCFF" fill-opacity="1.000000" fill-rule="nonzero"/>
		<path d="M70.4 56.22C70.4 56.22 67.64 54.67 68.03 54.3C68.41 53.93 68.9 54.14 68.9 54.14C68.9 54.14 67.54 52.59 68.06 52C68.58 51.4 69.24 52.21 69.24 52.21C69.24 52.21 68.17 49.85 69 49.67C69.83 49.49 71.06 51.66 71.06 51.66C71.06 51.66 70.59 50.45 71.54 50.4C72.49 50.35 72.36 52.21 72.34 52.32C72.32 52.43 72.42 51.72 72.98 52.04C73.54 52.37 72.77 58.14 70.4 56.22Z" fill="#51AEA5" fill-opacity="1.000000" fill-rule="nonzero"/>
		<path d="M73.14 59.46C73.14 59.46 73.99 62.5 73.46 62.49C72.93 62.48 72.72 61.99 72.72 61.99C72.72 61.99 72.6 64.04 71.81 64.1C71.02 64.16 71.12 63.11 71.12 63.11C71.12 63.11 70.22 65.54 69.5 65.08C68.78 64.62 69.45 62.22 69.45 62.22C69.45 62.22 68.92 63.4 68.22 62.77C67.51 62.14 68.91 60.91 69 60.85C69.1 60.78 68.52 61.21 68.36 60.59C68.19 59.96 72.81 56.42 73.14 59.46Z" fill="#51AEA5" fill-opacity="1.000000" fill-rule="nonzero"/>
		<path d="M73.3 56.04C73.3 56.04 75.51 53.78 75.77 54.24C76.03 54.71 75.7 55.13 75.7 55.13C75.7 55.13 77.54 54.21 77.99 54.86C78.43 55.52 77.48 55.96 77.48 55.96C77.48 55.96 80.03 55.52 79.99 56.37C79.96 57.23 77.54 57.85 77.54 57.85C77.54 57.85 78.83 57.71 78.63 58.64C78.44 59.57 76.68 58.97 76.58 58.92C76.47 58.87 77.13 59.16 76.68 59.61C76.22 60.07 70.84 57.84 73.3 56.04Z" fill="#51AEA5" fill-opacity="1.000000" fill-rule="nonzero"/>
		<path d="M74.48 57.44C74.42 57.41 74.35 57.39 74.28 57.37C74.64 57.17 74.93 56.85 75.1 56.45C75.5 55.48 75.05 54.37 74.08 53.97C73.11 53.57 72 54.02 71.6 54.99C71.48 55.28 71.44 55.58 71.46 55.87C70.53 55.57 69.51 56.03 69.13 56.95C68.73 57.91 69.19 59.02 70.15 59.42C70.73 59.67 71.36 59.59 71.86 59.29C71.9 59.99 72.33 60.65 73.03 60.93C73.99 61.34 75.1 60.88 75.5 59.91C75.9 58.95 75.45 57.84 74.48 57.44ZM72.77 57.52C72.78 57.52 72.8 57.53 72.82 57.54C72.8 57.55 72.79 57.56 72.77 57.57C72.77 57.55 72.77 57.54 72.77 57.52Z" fill="#D45A41" fill-opacity="1.000000" fill-rule="nonzero"/>
		<path d="M70.16 63.09C70.15 63.09 70.14 63.09 70.14 63.09C70.05 63.08 69.98 63 70 62.91C70.01 62.82 70.32 60.66 71.37 59.61C71.44 59.55 71.54 59.55 71.61 59.61C71.67 59.68 71.67 59.78 71.61 59.85C70.63 60.82 70.32 62.93 70.32 62.95C70.31 63.04 70.24 63.09 70.16 63.09Z" fill="#241726" fill-opacity="1.000000" fill-rule="nonzero"/>
		<path d="M71.6 55.16C71.51 55.16 71.44 55.08 71.44 54.99C71.44 54.28 70.16 52.8 69.67 52.3C69.6 52.23 69.6 52.13 69.67 52.06C69.74 52 69.84 52 69.9 52.07C70.09 52.27 71.76 54.02 71.77 54.99C71.77 55.08 71.69 55.16 71.6 55.16L71.6 55.16Z" fill="#241726" fill-opacity="1.000000" fill-rule="nonzero"/>
		<path d="M75.07 57.53C75.03 57.53 74.99 57.51 74.96 57.49C74.89 57.43 74.88 57.32 74.94 57.26C75.53 56.59 77.53 56.91 77.76 56.95C77.84 56.96 77.9 57.05 77.89 57.14C77.87 57.23 77.79 57.29 77.7 57.27C77.14 57.18 75.59 57.02 75.19 57.47C75.16 57.51 75.11 57.53 75.07 57.53Z" fill="#241726" fill-opacity="1.000000" fill-rule="nonzero"/>
		<path d="M74.55 57.29C74.5 57.27 73.56 56.86 72.78 57.32C72.68 56.39 71.73 55.81 71.69 55.78C71.61 55.74 71.51 55.76 71.47 55.84C71.42 55.92 71.44 56.02 71.52 56.07C71.53 56.07 72.46 56.64 72.46 57.47C72.46 57.5 72.47 57.52 72.48 57.55C72.45 57.58 72.41 57.62 72.38 57.66C71.9 58.22 71.68 58.73 71.73 59.18C71.76 59.56 71.99 59.75 72.01 59.77C72.04 59.79 72.08 59.8 72.11 59.8C72.16 59.8 72.21 59.78 72.24 59.74C72.3 59.67 72.29 59.57 72.22 59.51C72.21 59.51 72.07 59.39 72.05 59.13C72.03 58.89 72.11 58.47 72.63 57.87C73.28 57.1 74.37 57.57 74.41 57.59C74.5 57.62 74.59 57.58 74.63 57.5C74.67 57.42 74.63 57.32 74.55 57.29Z" fill="#241726" fill-opacity="1.000000" fill-rule="nonzero"/>
		<path d="M69.78 57.56C69.78 57.56 69.77 57.56 69.77 57.55C69.68 57.54 69.61 57.46 69.62 57.37C69.66 57.02 69.93 56.32 70.69 56.22C70.78 56.21 70.86 56.27 70.87 56.36C70.88 56.45 70.82 56.54 70.73 56.55C70.04 56.64 69.95 57.4 69.95 57.41C69.94 57.49 69.87 57.56 69.78 57.56Z" fill="#FBFCFF" fill-opacity="1.000000" fill-rule="nonzero"/>
		<path d="M72.49 55.34C72.46 55.34 72.43 55.33 72.4 55.31C72.32 55.26 72.3 55.16 72.35 55.08C72.37 55.05 72.87 54.29 73.54 54.24C73.63 54.23 73.71 54.3 73.72 54.39C73.73 54.48 73.66 54.56 73.57 54.56C73.06 54.61 72.63 55.26 72.63 55.26C72.59 55.31 72.54 55.34 72.49 55.34Z" fill="#FBFCFF" fill-opacity="1.000000" fill-rule="nonzero"/>
		<path d="M72.92 59.32C72.92 59.32 72.91 59.32 72.9 59.32C72.81 59.3 72.75 59.22 72.76 59.13C72.77 59.1 72.89 58.27 73.34 57.94C73.51 57.83 73.69 57.78 73.88 57.82C73.97 57.83 74.03 57.92 74.02 58.01C74 58.1 73.92 58.16 73.83 58.14C73.72 58.12 73.62 58.14 73.54 58.21C73.25 58.41 73.12 58.98 73.09 59.18C73.08 59.26 73 59.32 72.92 59.32Z" fill="#FBFCFF" fill-opacity="1.000000" fill-rule="nonzero"/>
		<path d="M26.85 72.15C26.8 72.15 26.76 72.13 26.72 72.1C26.7 72.07 26.23 71.56 25.48 71.91C25.4 71.95 25.3 71.91 25.26 71.83C25.22 71.75 25.26 71.65 25.34 71.61C26.12 71.24 26.75 71.62 26.97 71.88C27.03 71.95 27.02 72.05 26.95 72.11C26.92 72.14 26.88 72.15 26.85 72.15Z" fill="#241726" fill-opacity="1.000000" fill-rule="nonzero"/>
		<path d="M25.55 73.12C25.51 73.12 25.46 73.1 25.43 73.06C25.41 73.04 24.93 72.52 24.18 72.88C24.1 72.92 24 72.88 23.97 72.8C23.93 72.72 23.96 72.62 24.04 72.58C24.82 72.21 25.45 72.59 25.67 72.85C25.73 72.91 25.73 73.02 25.66 73.08C25.63 73.1 25.59 73.12 25.55 73.12Z" fill="#241726" fill-opacity="1.000000" fill-rule="nonzero"/>
		<path d="M23.37 72.93C23.33 72.93 23.28 72.91 23.25 72.88C23.23 72.85 22.76 72.34 22.01 72.69C21.93 72.73 21.83 72.7 21.79 72.61C21.75 72.53 21.78 72.43 21.87 72.4C22.65 72.03 23.27 72.41 23.5 72.66C23.56 72.73 23.55 72.83 23.48 72.89C23.45 72.92 23.41 72.93 23.37 72.93Z" fill="#241726" fill-opacity="1.000000" fill-rule="nonzero"/>
		<path d="M21.18 72.05C21.13 72.05 21.08 72.03 21.05 71.99C21 71.92 21.01 71.81 21.08 71.76C21.76 71.21 22.45 71.44 22.71 71.63C22.79 71.69 22.8 71.79 22.75 71.86C22.7 71.94 22.59 71.95 22.52 71.9C22.49 71.88 21.93 71.49 21.28 72.01C21.25 72.04 21.22 72.05 21.18 72.05Z" fill="#241726" fill-opacity="1.000000" fill-rule="nonzero"/>
		<path d="M23.55 71.87C23.5 71.87 23.45 71.85 23.42 71.8C23.37 71.73 23.38 71.63 23.45 71.57C24.16 71.06 24.84 71.32 25.1 71.53C25.17 71.58 25.18 71.69 25.12 71.76C25.07 71.83 24.96 71.84 24.89 71.78C24.87 71.76 24.32 71.35 23.65 71.84C23.62 71.86 23.59 71.87 23.55 71.87Z" fill="#241726" fill-opacity="1.000000" fill-rule="nonzero"/>
		<path d="M20.69 73.8C20.64 73.8 20.59 73.78 20.56 73.73C20.51 73.66 20.52 73.56 20.6 73.5C21.3 72.99 21.98 73.25 22.24 73.46C22.31 73.51 22.32 73.62 22.26 73.69C22.21 73.76 22.1 73.77 22.03 73.71C22.01 73.7 21.46 73.28 20.79 73.77C20.76 73.79 20.73 73.8 20.69 73.8Z" fill="#241726" fill-opacity="1.000000" fill-rule="nonzero"/>
		<path d="M19.3 73.05C19.26 73.05 19.22 73.03 19.18 73C19.12 72.93 19.12 72.83 19.18 72.76C19.81 72.14 20.51 72.29 20.8 72.46C20.87 72.51 20.9 72.61 20.85 72.69C20.81 72.76 20.71 72.79 20.63 72.75C20.6 72.73 20.01 72.4 19.42 73C19.38 73.03 19.34 73.05 19.3 73.05Z" fill="#241726" fill-opacity="1.000000" fill-rule="nonzero"/>
		<path d="M57.4 71.55C57.35 71.55 57.31 71.53 57.28 71.5C57.26 71.47 56.78 70.96 56.03 71.31C55.95 71.35 55.85 71.32 55.81 71.23C55.77 71.15 55.81 71.05 55.89 71.01C56.67 70.64 57.3 71.03 57.52 71.28C57.58 71.35 57.57 71.45 57.51 71.51C57.48 71.54 57.44 71.55 57.4 71.55Z" fill="#241726" fill-opacity="1.000000" fill-rule="nonzero"/>
		<path d="M56.1 72.52C56.06 72.52 56.01 72.5 55.98 72.46C55.96 72.44 55.48 71.92 54.74 72.28C54.65 72.32 54.56 72.28 54.52 72.2C54.48 72.12 54.51 72.02 54.6 71.98C55.38 71.61 56 71.99 56.23 72.25C56.29 72.31 56.28 72.42 56.21 72.48C56.18 72.5 56.14 72.52 56.1 72.52Z" fill="#241726" fill-opacity="1.000000" fill-rule="nonzero"/>
		<path d="M53.93 72.33C53.88 72.33 53.83 72.31 53.8 72.28C53.78 72.25 53.31 71.74 52.56 72.09C52.48 72.13 52.38 72.1 52.34 72.01C52.3 71.93 52.34 71.83 52.42 71.8C53.2 71.43 53.83 71.81 54.05 72.06C54.11 72.13 54.1 72.23 54.03 72.29C54 72.32 53.96 72.33 53.93 72.33Z" fill="#241726" fill-opacity="1.000000" fill-rule="nonzero"/>
		<path d="M51.73 71.45C51.68 71.45 51.64 71.43 51.6 71.39C51.55 71.32 51.56 71.21 51.63 71.16C52.31 70.61 53 70.84 53.27 71.03C53.34 71.09 53.35 71.19 53.3 71.26C53.25 71.34 53.14 71.35 53.07 71.3C53.05 71.28 52.49 70.89 51.83 71.41C51.8 71.44 51.77 71.45 51.73 71.45Z" fill="#241726" fill-opacity="1.000000" fill-rule="nonzero"/>
		<path d="M54.1 71.27C54.05 71.27 54 71.25 53.97 71.2C53.92 71.13 53.93 71.03 54.01 70.97C54.71 70.46 55.39 70.72 55.65 70.93C55.72 70.98 55.73 71.09 55.67 71.16C55.62 71.23 55.51 71.24 55.44 71.18C55.42 71.16 54.87 70.75 54.2 71.24C54.17 71.26 54.14 71.27 54.1 71.27Z" fill="#241726" fill-opacity="1.000000" fill-rule="nonzero"/>
		<path d="M51.25 73.2C51.19 73.2 51.15 73.18 51.11 73.13C51.06 73.06 51.08 72.96 51.15 72.91C51.85 72.39 52.53 72.65 52.79 72.86C52.86 72.92 52.87 73.02 52.82 73.09C52.76 73.16 52.66 73.17 52.59 73.11C52.56 73.1 52.02 72.68 51.34 73.17C51.31 73.19 51.28 73.2 51.25 73.2Z" fill="#241726" fill-opacity="1.000000" fill-rule="nonzero"/>
		<path d="M49.85 72.45C49.81 72.45 49.77 72.43 49.74 72.4C49.67 72.33 49.67 72.23 49.74 72.17C50.36 71.54 51.06 71.7 51.35 71.86C51.43 71.91 51.45 72.01 51.41 72.09C51.36 72.16 51.26 72.19 51.18 72.15C51.16 72.13 50.56 71.8 49.97 72.4C49.94 72.43 49.89 72.45 49.85 72.45Z" fill="#241726" fill-opacity="1.000000" fill-rule="nonzero"/>
		<path d="M5.67 67.46C5.54 67.46 5.41 67.45 5.28 67.43C5.19 67.41 5.13 67.33 5.14 67.24C5.16 67.15 5.24 67.09 5.33 67.1C5.53 67.13 5.74 67.13 5.94 67.11C6.03 67.1 6.11 67.16 6.12 67.25C6.13 67.34 6.07 67.43 5.98 67.44C5.87 67.45 5.77 67.46 5.67 67.46ZM6.6 67.29C6.53 67.29 6.47 67.25 6.44 67.18C6.41 67.09 6.46 67 6.54 66.97C6.73 66.9 6.92 66.81 7.11 66.71C7.19 66.66 7.29 66.69 7.33 66.77C7.38 66.85 7.35 66.95 7.27 66.99C7.07 67.11 6.86 67.21 6.65 67.28C6.63 67.29 6.62 67.29 6.6 67.29ZM4.68 67.25C4.65 67.25 4.63 67.24 4.61 67.23C4.4 67.14 4.2 67.03 4.01 66.88C3.94 66.83 3.92 66.73 3.98 66.65C4.03 66.58 4.13 66.57 4.21 66.62C4.38 66.75 4.56 66.85 4.74 66.93C4.82 66.97 4.86 67.07 4.83 67.15C4.8 67.21 4.74 67.25 4.68 67.25ZM7.73 66.64C7.69 66.64 7.64 66.62 7.61 66.58C7.55 66.51 7.56 66.41 7.63 66.35C7.79 66.22 7.95 66.08 8.1 65.92C8.16 65.86 8.27 65.86 8.33 65.92C8.4 65.98 8.4 66.09 8.34 66.15C8.18 66.32 8.01 66.47 7.84 66.61C7.81 66.63 7.77 66.64 7.73 66.64ZM3.62 66.48C3.58 66.48 3.53 66.46 3.5 66.43C3.35 66.27 3.21 66.09 3.07 65.9C3.02 65.83 3.04 65.73 3.11 65.67C3.19 65.62 3.29 65.64 3.34 65.71C3.47 65.89 3.6 66.06 3.74 66.2C3.8 66.27 3.8 66.37 3.73 66.43C3.7 66.46 3.66 66.48 3.62 66.48ZM8.65 65.7C8.61 65.7 8.58 65.69 8.55 65.67C8.48 65.61 8.46 65.51 8.52 65.44C8.65 65.27 8.76 65.09 8.87 64.91C8.91 64.83 9.01 64.8 9.09 64.85C9.17 64.89 9.2 64.99 9.15 65.07C9.04 65.26 8.92 65.45 8.78 65.64C8.75 65.68 8.7 65.7 8.65 65.7ZM2.85 65.42C2.8 65.42 2.74 65.39 2.71 65.33C2.6 65.13 2.5 64.92 2.43 64.71C2.4 64.63 2.44 64.53 2.52 64.5C2.61 64.47 2.7 64.51 2.74 64.6C2.81 64.79 2.89 64.99 3 65.17C3.04 65.25 3.01 65.35 2.93 65.4C2.91 65.41 2.88 65.42 2.85 65.42ZM2.41 64.19C2.33 64.19 2.26 64.13 2.25 64.05C2.21 63.84 2.19 63.62 2.19 63.41L2.36 63.37L2.52 63.39C2.52 63.6 2.54 63.8 2.57 63.99C2.59 64.08 2.53 64.17 2.44 64.18C2.43 64.19 2.42 64.19 2.41 64.19ZM2.42 62.88C2.41 62.88 2.4 62.88 2.39 62.88C2.3 62.86 2.25 62.77 2.26 62.69C2.31 62.47 2.37 62.24 2.45 62.03C2.48 61.94 2.57 61.9 2.66 61.93C2.74 61.96 2.79 62.06 2.76 62.14C2.68 62.34 2.62 62.54 2.59 62.75C2.57 62.83 2.5 62.88 2.42 62.88ZM2.88 61.65C2.85 61.65 2.82 61.65 2.8 61.63C2.72 61.59 2.69 61.49 2.73 61.41C2.84 61.21 2.96 61.02 3.1 60.84C3.16 60.77 3.26 60.75 3.33 60.81C3.4 60.86 3.42 60.96 3.36 61.04C3.24 61.21 3.12 61.39 3.02 61.57C2.99 61.62 2.93 61.65 2.88 61.65ZM6.14 61.32C6.13 61.32 6.13 61.32 6.13 61.32C5.91 61.31 5.68 61.27 5.45 61.21C5.36 61.19 5.31 61.1 5.33 61.02C5.35 60.93 5.43 60.87 5.52 60.89C5.74 60.95 5.95 60.98 6.14 60.99C6.24 61 6.3 61.07 6.3 61.16C6.29 61.25 6.22 61.32 6.14 61.32ZM6.79 61.27C6.71 61.27 6.65 61.22 6.63 61.15C6.61 61.06 6.66 60.97 6.75 60.95C6.97 60.9 7.13 60.81 7.22 60.69C7.27 60.62 7.37 60.6 7.45 60.66C7.52 60.71 7.53 60.82 7.48 60.89C7.34 61.07 7.12 61.2 6.83 61.27C6.81 61.27 6.8 61.27 6.79 61.27ZM4.86 61.02C4.84 61.02 4.82 61.02 4.8 61.01C4.59 60.92 4.38 60.82 4.19 60.71C4.11 60.67 4.08 60.57 4.13 60.49C4.17 60.41 4.27 60.38 4.35 60.43C4.53 60.53 4.72 60.62 4.92 60.7C5.01 60.74 5.05 60.83 5.01 60.92C4.99 60.98 4.93 61.02 4.86 61.02ZM3.66 60.6C3.62 60.6 3.58 60.59 3.54 60.56C3.48 60.49 3.48 60.39 3.54 60.33C3.55 60.32 3.56 60.31 3.57 60.29C3.41 60.16 3.26 60.02 3.12 59.88C3.06 59.81 3.06 59.71 3.13 59.64C3.19 59.58 3.3 59.58 3.36 59.65C3.5 59.8 3.65 59.94 3.81 60.07C3.89 60 3.97 59.93 4.05 59.87C4.12 59.82 4.22 59.83 4.28 59.9C4.33 59.97 4.32 60.07 4.25 60.13C4.08 60.26 3.92 60.4 3.78 60.55C3.74 60.59 3.7 60.6 3.66 60.6ZM7.43 60.33C7.36 60.33 7.29 60.28 7.27 60.21C7.25 60.13 7.22 60.04 7.17 59.96C7.12 59.86 7.07 59.77 7 59.7C6.94 59.63 6.94 59.53 7.01 59.47C7.08 59.41 7.18 59.41 7.24 59.48C7.33 59.58 7.4 59.69 7.47 59.81C7.52 59.92 7.56 60.02 7.59 60.12C7.61 60.21 7.56 60.3 7.47 60.32C7.46 60.33 7.44 60.33 7.43 60.33ZM4.69 59.8C4.63 59.8 4.58 59.77 4.55 59.71C4.5 59.64 4.53 59.54 4.61 59.49C4.81 59.37 5.02 59.27 5.23 59.2C5.31 59.17 5.41 59.21 5.44 59.29C5.47 59.38 5.43 59.47 5.34 59.51C5.15 59.57 4.96 59.66 4.77 59.77C4.75 59.79 4.72 59.8 4.69 59.8ZM2.83 59.41C2.78 59.41 2.73 59.39 2.69 59.34C2.57 59.15 2.46 58.94 2.37 58.73C2.34 58.65 2.38 58.55 2.46 58.52C2.54 58.48 2.64 58.52 2.68 58.61C2.76 58.8 2.85 58.98 2.97 59.16C3.02 59.23 3 59.34 2.92 59.39C2.89 59.4 2.86 59.41 2.83 59.41ZM6.57 59.41C6.56 59.41 6.54 59.41 6.53 59.41C6.35 59.35 6.15 59.34 5.94 59.36C5.85 59.37 5.77 59.31 5.76 59.22C5.75 59.13 5.81 59.05 5.9 59.04C6.16 59.01 6.4 59.03 6.62 59.09C6.71 59.12 6.75 59.21 6.73 59.29C6.71 59.37 6.64 59.41 6.57 59.41ZM2.33 58.21C2.25 58.21 2.19 58.16 2.17 58.08C2.12 57.86 2.1 57.63 2.09 57.4C2.09 57.31 2.16 57.23 2.25 57.23C2.34 57.23 2.42 57.3 2.42 57.39C2.42 57.6 2.45 57.81 2.49 58.01C2.51 58.1 2.45 58.19 2.36 58.21C2.35 58.21 2.34 58.21 2.33 58.21ZM2.26 56.9C2.26 56.9 2.26 56.9 2.25 56.9C2.16 56.9 2.09 56.82 2.1 56.73C2.11 56.5 2.14 56.27 2.17 56.06C2.18 55.97 2.27 55.91 2.36 55.92C2.45 55.94 2.51 56.02 2.49 56.11C2.46 56.31 2.44 56.53 2.43 56.75C2.42 56.83 2.35 56.9 2.26 56.9ZM2.47 55.61C2.45 55.61 2.44 55.61 2.42 55.6C2.34 55.58 2.29 55.49 2.31 55.4C2.38 55.17 2.45 54.96 2.54 54.76C2.58 54.68 2.68 54.64 2.76 54.68C2.84 54.71 2.88 54.81 2.84 54.89C2.76 55.08 2.69 55.28 2.63 55.49C2.61 55.56 2.54 55.61 2.47 55.61ZM4.4 54.52C4.39 54.52 4.39 54.52 4.38 54.52C4.15 54.49 3.92 54.44 3.7 54.36C3.62 54.33 3.57 54.23 3.61 54.15C3.64 54.06 3.73 54.02 3.82 54.05C4.01 54.12 4.21 54.17 4.42 54.19C4.51 54.2 4.57 54.28 4.56 54.37C4.55 54.46 4.48 54.52 4.4 54.52ZM5.05 54.51C4.97 54.51 4.9 54.45 4.89 54.37C4.88 54.28 4.94 54.2 5.03 54.18C5.25 54.15 5.44 54.08 5.58 53.99C5.65 53.94 5.76 53.97 5.81 54.04C5.86 54.12 5.83 54.22 5.76 54.27C5.58 54.38 5.35 54.47 5.08 54.51C5.07 54.51 5.06 54.51 5.05 54.51ZM3.02 54.42C2.99 54.42 2.95 54.41 2.92 54.39C2.85 54.34 2.83 54.24 2.88 54.16C2.93 54.1 2.97 54.05 3.01 53.99C2.85 53.87 2.7 53.74 2.56 53.58C2.5 53.52 2.51 53.41 2.57 53.35C2.64 53.29 2.74 53.3 2.81 53.36C2.94 53.51 3.08 53.64 3.24 53.75C3.27 53.71 3.31 53.68 3.34 53.64C3.41 53.58 3.52 53.59 3.58 53.66C3.64 53.73 3.63 53.83 3.56 53.89C3.41 54.02 3.28 54.18 3.15 54.35C3.12 54.4 3.07 54.42 3.02 54.42ZM5.83 53.75C5.78 53.75 5.73 53.73 5.7 53.69C5.69 53.67 5.67 53.66 5.66 53.65C5.55 53.54 5.4 53.46 5.23 53.41C5.14 53.39 5.09 53.3 5.11 53.21C5.14 53.12 5.23 53.07 5.32 53.09C5.54 53.16 5.73 53.26 5.89 53.41C5.91 53.43 5.94 53.46 5.96 53.48C6.01 53.56 6 53.66 5.93 53.71C5.9 53.74 5.86 53.75 5.83 53.75ZM4 53.57C3.94 53.57 3.88 53.53 3.85 53.47C3.81 53.39 3.84 53.29 3.92 53.25C4.14 53.15 4.37 53.08 4.6 53.05C4.69 53.04 4.77 53.1 4.78 53.19C4.8 53.28 4.73 53.36 4.64 53.37C4.45 53.4 4.26 53.46 4.07 53.55C4.05 53.56 4.02 53.57 4 53.57ZM2.3 53.11C2.24 53.11 2.19 53.08 2.16 53.03C2.05 52.84 1.95 52.63 1.87 52.41C1.84 52.32 1.88 52.23 1.97 52.2C2.05 52.16 2.15 52.21 2.18 52.29C2.25 52.5 2.34 52.69 2.44 52.86C2.49 52.94 2.46 53.04 2.38 53.09C2.36 53.1 2.33 53.11 2.3 53.11ZM1.84 51.88C1.77 51.88 1.7 51.83 1.68 51.75C1.67 51.69 1.66 51.63 1.64 51.57C1.61 51.4 1.59 51.24 1.57 51.09C1.56 51 1.63 50.92 1.72 50.91C1.81 50.9 1.89 50.96 1.9 51.05C1.92 51.2 1.94 51.35 1.97 51.51C1.98 51.57 1.99 51.63 2 51.68C2.02 51.77 1.96 51.86 1.88 51.88C1.86 51.88 1.85 51.88 1.84 51.88ZM1.69 50.58C1.6 50.58 1.53 50.51 1.53 50.42L1.53 50.37C1.53 50.15 1.54 49.94 1.57 49.74C1.58 49.65 1.66 49.59 1.75 49.6C1.84 49.61 1.9 49.69 1.89 49.78C1.87 49.97 1.86 50.17 1.86 50.37L1.86 50.42C1.86 50.51 1.79 50.58 1.69 50.58C1.69 50.58 1.69 50.58 1.69 50.58ZM1.86 49.29C1.85 49.29 1.83 49.28 1.82 49.28C1.73 49.25 1.68 49.16 1.71 49.07C1.77 48.85 1.86 48.64 1.97 48.44C2.01 48.36 2.11 48.33 2.19 48.37C2.27 48.41 2.3 48.51 2.26 48.59C2.16 48.77 2.08 48.96 2.02 49.17C2 49.24 1.94 49.29 1.86 49.29ZM2.48 48.13C2.44 48.13 2.4 48.12 2.37 48.1C2.3 48.04 2.29 47.93 2.35 47.86C2.5 47.69 2.66 47.53 2.84 47.38C2.92 47.33 3.02 47.34 3.08 47.41C3.13 47.48 3.12 47.59 3.05 47.64C2.88 47.77 2.73 47.92 2.6 48.07C2.57 48.11 2.52 48.13 2.48 48.13ZM3.5 47.33C3.44 47.33 3.38 47.29 3.35 47.24C3.31 47.15 3.35 47.06 3.43 47.01C3.79 46.83 4.07 46.77 4.08 46.77C4.17 46.75 4.26 46.81 4.28 46.9C4.3 46.99 4.24 47.07 4.15 47.09C4.15 47.09 3.9 47.14 3.57 47.31C3.55 47.32 3.53 47.33 3.5 47.33Z" fill="#241726" fill-opacity="1.000000" fill-rule="nonzero"/>
		<path d="M73.1 47.74C73.09 47.74 73.09 47.74 73.08 47.74C72.85 47.72 72.62 47.67 72.4 47.59C72.32 47.56 72.27 47.47 72.3 47.38C72.33 47.29 72.42 47.25 72.51 47.28C72.71 47.35 72.91 47.39 73.11 47.41C73.2 47.42 73.27 47.5 73.26 47.59C73.25 47.67 73.18 47.74 73.1 47.74ZM73.75 47.71C73.67 47.71 73.6 47.65 73.59 47.57C73.57 47.48 73.63 47.4 73.72 47.38C73.92 47.34 74.11 47.28 74.3 47.19C74.39 47.16 74.48 47.19 74.52 47.27C74.56 47.36 74.52 47.46 74.44 47.49C74.22 47.59 74 47.66 73.78 47.7C73.77 47.71 73.76 47.71 73.75 47.71ZM71.86 47.31C71.84 47.31 71.81 47.31 71.78 47.29C71.59 47.17 71.4 47.03 71.23 46.88C71.16 46.82 71.16 46.71 71.22 46.64C71.28 46.58 71.38 46.57 71.45 46.63C71.61 46.78 71.78 46.9 71.95 47.01C72.03 47.06 72.05 47.16 72 47.24C71.97 47.29 71.92 47.31 71.86 47.31ZM74.94 47.18C74.89 47.18 74.84 47.15 74.81 47.11C74.75 47.03 74.77 46.93 74.84 46.88C75 46.76 75.17 46.62 75.32 46.47C75.39 46.41 75.49 46.41 75.55 46.47C75.62 46.54 75.62 46.64 75.55 46.7C75.38 46.87 75.21 47.02 75.03 47.14C75.01 47.17 74.97 47.18 74.94 47.18ZM70.89 46.44C70.85 46.44 70.8 46.42 70.76 46.38C70.62 46.19 70.49 46 70.39 45.8C70.35 45.72 70.38 45.62 70.46 45.58C70.54 45.54 70.64 45.57 70.68 45.65C70.77 45.83 70.89 46 71.02 46.17C71.08 46.24 71.07 46.35 71 46.4C70.97 46.43 70.93 46.44 70.89 46.44ZM75.88 46.26C75.84 46.26 75.8 46.25 75.77 46.23C75.7 46.17 75.69 46.07 75.75 46C75.83 45.89 75.91 45.78 76 45.67C76.04 45.6 76.08 45.54 76.12 45.48C76.17 45.4 76.27 45.38 76.35 45.43C76.43 45.48 76.45 45.58 76.4 45.66C76.36 45.72 76.31 45.79 76.26 45.86C76.18 45.98 76.09 46.09 76 46.2C75.97 46.24 75.92 46.26 75.88 46.26ZM76.57 45.15C76.55 45.15 76.53 45.15 76.51 45.14C76.42 45.1 76.38 45.01 76.42 44.92C76.5 44.73 76.56 44.53 76.6 44.33C76.61 44.24 76.7 44.18 76.79 44.2C76.88 44.21 76.93 44.3 76.92 44.39C76.88 44.61 76.81 44.83 76.72 45.05C76.69 45.11 76.63 45.15 76.57 45.15ZM76.8 43.87C76.71 43.87 76.64 43.8 76.64 43.71C76.63 43.51 76.59 43.31 76.53 43.11C76.51 43.02 76.56 42.93 76.65 42.9C76.73 42.88 76.82 42.93 76.85 43.01C76.91 43.24 76.95 43.47 76.97 43.7C76.97 43.79 76.9 43.86 76.81 43.87C76.81 43.87 76.8 43.87 76.8 43.87ZM76.44 42.62C76.38 42.62 76.33 42.59 76.3 42.53C76.2 42.35 76.09 42.18 75.95 42.01C75.9 41.93 75.91 41.83 75.98 41.78C76.05 41.72 76.16 41.73 76.21 41.8C76.36 41.99 76.48 42.18 76.59 42.38C76.63 42.46 76.6 42.56 76.52 42.6C76.5 42.61 76.47 42.62 76.44 42.62ZM73.26 41.86C73.17 41.86 73.09 41.79 73.09 41.7C73.09 41.61 73.16 41.53 73.25 41.53C73.44 41.53 73.64 41.49 73.85 41.43C73.94 41.4 74.03 41.45 74.06 41.54C74.09 41.62 74.04 41.71 73.95 41.74C73.71 41.82 73.47 41.86 73.26 41.86C73.26 41.86 73.26 41.86 73.26 41.86ZM72.63 41.71C72.6 41.71 72.56 41.7 72.54 41.68C72.33 41.53 72.21 41.31 72.21 41.05C72.21 41.02 72.22 40.99 72.22 40.95C72.23 40.86 72.31 40.8 72.4 40.81C72.49 40.82 72.56 40.9 72.55 40.99C72.54 41.01 72.54 41.03 72.54 41.05C72.54 41.21 72.6 41.32 72.72 41.41C72.8 41.46 72.82 41.56 72.77 41.64C72.73 41.68 72.68 41.71 72.63 41.71ZM75.64 41.59C75.6 41.59 75.56 41.57 75.53 41.54C75.39 41.41 75.24 41.29 75.09 41.18C74.92 41.29 74.75 41.39 74.58 41.48C74.5 41.52 74.4 41.49 74.36 41.41C74.32 41.33 74.35 41.23 74.43 41.19C74.61 41.09 74.79 40.98 74.97 40.86C75.02 40.82 75.09 40.82 75.14 40.84C75.17 40.85 75.2 40.85 75.22 40.87C75.41 41 75.59 41.15 75.75 41.3C75.82 41.36 75.82 41.47 75.76 41.53C75.73 41.57 75.68 41.59 75.64 41.59ZM74.57 40.83C74.54 40.83 74.52 40.82 74.49 40.81C74.3 40.71 74.1 40.63 73.91 40.57C73.83 40.54 73.78 40.45 73.81 40.36C73.83 40.27 73.93 40.23 74.01 40.26C74.22 40.32 74.43 40.41 74.64 40.52C74.72 40.56 74.76 40.66 74.71 40.74C74.68 40.8 74.63 40.83 74.57 40.83ZM75.58 40.75C75.54 40.75 75.49 40.73 75.46 40.69C75.4 40.62 75.41 40.52 75.48 40.46C75.63 40.32 75.79 40.18 75.94 40.02C76 39.95 76.11 39.95 76.17 40.01C76.24 40.08 76.24 40.18 76.18 40.24C76.02 40.41 75.86 40.57 75.69 40.71C75.66 40.74 75.62 40.75 75.58 40.75ZM72.69 40.58C72.63 40.58 72.58 40.55 72.55 40.5C72.5 40.43 72.52 40.32 72.6 40.27C72.76 40.17 72.97 40.12 73.22 40.12C73.25 40.11 73.29 40.12 73.33 40.12C73.42 40.12 73.49 40.2 73.48 40.29C73.48 40.38 73.4 40.46 73.31 40.45C73.28 40.45 73.25 40.44 73.23 40.45C73.04 40.45 72.88 40.48 72.77 40.55C72.75 40.57 72.72 40.58 72.69 40.58ZM76.49 39.8C76.46 39.8 76.42 39.79 76.39 39.77C76.32 39.71 76.31 39.6 76.37 39.53C76.5 39.37 76.63 39.2 76.75 39.02C76.81 38.95 76.91 38.93 76.98 38.98C77.06 39.03 77.08 39.14 77.02 39.21C76.89 39.39 76.76 39.57 76.62 39.74C76.59 39.78 76.54 39.8 76.49 39.8ZM77.25 38.73C77.22 38.73 77.19 38.72 77.16 38.71C77.09 38.66 77.06 38.56 77.11 38.48C77.19 38.35 77.27 38.22 77.35 38.08C77.38 38.02 77.4 37.97 77.43 37.92C77.47 37.84 77.57 37.81 77.65 37.85C77.73 37.89 77.76 37.99 77.72 38.07C77.69 38.13 77.66 38.18 77.63 38.24C77.55 38.38 77.47 38.52 77.39 38.65C77.36 38.7 77.3 38.73 77.25 38.73ZM77.82 37.55C77.81 37.55 77.79 37.55 77.77 37.55C77.69 37.52 77.64 37.43 77.67 37.34C77.73 37.14 77.77 36.93 77.79 36.73C77.8 36.64 77.88 36.58 77.97 36.58C78.06 36.59 78.13 36.67 78.12 36.76C78.09 36.99 78.05 37.21 77.98 37.44C77.96 37.51 77.89 37.55 77.82 37.55ZM77.95 36.25C77.86 36.25 77.79 36.19 77.78 36.11C77.76 35.91 77.71 35.7 77.64 35.51C77.62 35.42 77.66 35.33 77.75 35.3C77.83 35.27 77.93 35.31 77.96 35.4C78.03 35.62 78.08 35.85 78.11 36.07C78.12 36.16 78.06 36.24 77.97 36.25C77.96 36.25 77.95 36.25 77.95 36.25ZM77.53 35.02C77.47 35.02 77.42 34.99 77.39 34.94C77.29 34.76 77.17 34.58 77.03 34.41C76.98 34.34 76.99 34.24 77.06 34.18C77.13 34.13 77.23 34.14 77.29 34.21C77.44 34.39 77.56 34.58 77.67 34.77C77.72 34.85 77.69 34.95 77.61 35C77.59 35.01 77.56 35.02 77.53 35.02ZM76.72 33.99C76.68 33.99 76.64 33.98 76.6 33.95C76.45 33.8 76.29 33.66 76.12 33.53C76.05 33.48 76.03 33.38 76.09 33.3C76.14 33.23 76.24 33.22 76.32 33.27C76.5 33.41 76.67 33.56 76.83 33.71C76.9 33.77 76.9 33.88 76.84 33.94C76.8 33.98 76.76 33.99 76.72 33.99ZM72.8 33.77C72.48 33.77 72.28 33.56 72.26 33.2C72.26 33.1 72.33 33.03 72.42 33.02C72.5 33.01 72.58 33.09 72.59 33.18C72.6 33.44 72.74 33.44 72.8 33.44C72.89 33.44 72.97 33.51 72.97 33.6C72.98 33.69 72.92 33.77 72.83 33.77C72.83 33.77 72.8 33.77 72.8 33.77ZM73.43 33.53C73.37 33.53 73.32 33.51 73.29 33.46C73.24 33.38 73.26 33.28 73.34 33.23C73.49 33.13 73.65 33 73.81 32.84C73.88 32.77 73.98 32.77 74.05 32.84C74.11 32.9 74.11 33 74.05 33.07C73.87 33.24 73.69 33.39 73.52 33.51C73.49 33.53 73.46 33.53 73.43 33.53ZM75.67 33.2C75.64 33.2 75.61 33.19 75.59 33.18C75.4 33.07 75.21 32.97 75.02 32.88C74.94 32.84 74.9 32.74 74.94 32.66C74.98 32.58 75.08 32.54 75.16 32.58C75.36 32.67 75.56 32.78 75.76 32.9C75.83 32.94 75.86 33.04 75.81 33.12C75.78 33.17 75.73 33.2 75.67 33.2ZM72.6 32.74C72.56 32.74 72.52 32.72 72.49 32.69C72.42 32.63 72.42 32.53 72.48 32.46C72.63 32.29 72.86 32.18 73.17 32.15C73.26 32.14 73.34 32.2 73.35 32.29C73.36 32.38 73.3 32.46 73.21 32.47C72.99 32.5 72.82 32.57 72.72 32.68C72.69 32.72 72.64 32.74 72.6 32.74ZM74.48 32.65C74.46 32.65 74.45 32.65 74.43 32.64C74.4 32.64 74.37 32.63 74.35 32.62C74.33 32.62 74.3 32.61 74.28 32.6C74.12 32.55 73.96 32.52 73.82 32.5C73.73 32.48 73.67 32.4 73.68 32.31C73.69 32.22 73.78 32.16 73.87 32.17C74.01 32.19 74.15 32.22 74.3 32.26C74.4 32.12 74.49 31.98 74.58 31.83C74.63 31.75 74.73 31.72 74.8 31.77C74.88 31.81 74.91 31.91 74.86 31.99C74.79 32.13 74.7 32.26 74.61 32.39C74.64 32.43 74.65 32.49 74.64 32.54C74.61 32.61 74.55 32.65 74.48 32.65ZM75.02 31.48C75 31.48 74.97 31.48 74.95 31.47C74.87 31.43 74.83 31.34 74.87 31.25C74.95 31.06 75.02 30.86 75.09 30.66C75.11 30.57 75.2 30.52 75.29 30.55C75.38 30.57 75.43 30.66 75.4 30.75C75.33 30.97 75.26 31.18 75.17 31.39C75.14 31.45 75.08 31.48 75.02 31.48ZM75.4 30.23C75.39 30.23 75.38 30.23 75.37 30.23C75.28 30.21 75.22 30.13 75.23 30.04C75.27 29.83 75.3 29.62 75.31 29.4C75.32 29.31 75.4 29.24 75.49 29.25C75.58 29.26 75.64 29.33 75.64 29.42C75.62 29.65 75.6 29.87 75.56 30.1C75.54 30.17 75.47 30.23 75.4 30.23ZM75.47 28.92C75.39 28.92 75.31 28.86 75.31 28.77C75.29 28.56 75.25 28.36 75.18 28.17C75.16 28.08 75.2 27.99 75.29 27.96C75.38 27.93 75.47 27.98 75.5 28.07C75.57 28.28 75.61 28.51 75.63 28.74C75.64 28.83 75.58 28.91 75.49 28.92C75.48 28.92 75.47 28.92 75.47 28.92ZM75.07 27.69C75.02 27.69 74.96 27.66 74.93 27.61C74.83 27.43 74.7 27.27 74.55 27.12C74.49 27.06 74.49 26.95 74.55 26.89C74.62 26.83 74.72 26.83 74.79 26.89C74.95 27.06 75.09 27.24 75.21 27.44C75.26 27.51 75.23 27.62 75.16 27.66C75.13 27.68 75.1 27.69 75.07 27.69ZM74.16 26.75C74.13 26.75 74.1 26.74 74.07 26.72C73.91 26.61 73.72 26.5 73.52 26.41C73.44 26.37 73.41 26.27 73.44 26.19C73.48 26.11 73.58 26.08 73.66 26.11C73.88 26.22 74.08 26.33 74.26 26.45C74.33 26.5 74.35 26.6 74.3 26.68C74.27 26.73 74.22 26.75 74.16 26.75ZM72.98 26.19C72.97 26.19 72.95 26.18 72.93 26.18C72.73 26.11 72.53 26.06 72.31 26.01C72.22 25.99 72.17 25.9 72.19 25.81C72.21 25.73 72.29 25.67 72.38 25.69C72.61 25.74 72.83 25.8 73.03 25.87C73.12 25.89 73.17 25.99 73.14 26.07C73.12 26.14 73.05 26.19 72.98 26.19ZM71.7 25.9C71.69 25.9 71.68 25.9 71.68 25.9C71.3 25.85 71.04 25.85 71.04 25.85C70.95 25.85 70.88 25.77 70.88 25.68C70.88 25.59 70.95 25.52 71.04 25.52C71.05 25.52 71.31 25.52 71.72 25.57C71.81 25.59 71.87 25.67 71.86 25.76C71.85 25.84 71.78 25.9 71.7 25.9Z" fill="#241726" fill-opacity="1.000000" fill-rule="nonzero"/>
		<path d="M64.45 35.81C64.45 35.81 60.95 29.93 62.32 30.26C63.7 30.58 64.81 34.29 64.81 34.29C64.81 34.29 65 26.86 65.93 27.98C66.86 29.1 65.93 32.9 65.93 32.9C65.93 32.9 65.92 26.77 67.08 27.98C68.25 29.19 67.08 33.36 67.08 33.36C67.08 33.36 68.25 28.22 68.8 29.21C69.36 30.21 67.97 34.38 67.97 34.38C67.97 34.38 69.92 31.13 70.29 31.87C70.66 32.62 67.08 37.07 67.08 37.07L67.08 40.23L64.07 39.7L64.45 35.81Z" fill="#E38B72" fill-opacity="1.000000" fill-rule="nonzero"/>
		<path d="M66.16 36.25C66.14 36.25 66.13 36.25 66.11 36.24C66.03 36.22 65.98 36.13 66 36.04C66.08 35.75 66.21 34.92 65.86 34.56C65.66 34.36 65.32 34.32 64.85 34.45C64.76 34.47 64.67 34.42 64.65 34.33C64.62 34.24 64.68 34.15 64.76 34.13C65.36 33.97 65.81 34.04 66.1 34.33C66.65 34.89 66.33 36.08 66.32 36.13C66.3 36.2 66.23 36.25 66.16 36.25Z" fill="#241726" fill-opacity="1.000000" fill-rule="nonzero"/>
		<path d="M65.93 33.06C65.84 33.06 65.77 33 65.77 32.91C65.73 32.23 65.87 30.33 65.88 30.25C65.89 30.15 65.97 30.09 66.06 30.09C66.15 30.1 66.21 30.18 66.21 30.27C66.21 30.29 66.06 32.23 66.09 32.89C66.1 32.98 66.03 33.06 65.94 33.06C65.93 33.06 65.93 33.06 65.93 33.06Z" fill="#241726" fill-opacity="1.000000" fill-rule="nonzero"/>
		<path d="M67.08 33.53C67.07 33.53 67.07 33.53 67.06 33.52C66.97 33.51 66.91 33.42 66.92 33.33L67.42 30.43C67.44 30.35 67.52 30.29 67.61 30.3C67.7 30.32 67.76 30.4 67.74 30.49L67.25 33.39C67.23 33.47 67.16 33.53 67.08 33.53Z" fill="#241726" fill-opacity="1.000000" fill-rule="nonzero"/>
		<path d="M63.14 36.66C63.14 36.66 63.27 46.65 62.57 46.93C61.87 47.21 55.12 42.99 55.12 42.99L39.35 44.18L23.56 45.5C23.56 45.5 8.69 52.29 8.55 54.54C8.41 56.79 15.88 60.91 15.88 60.91L19.37 57.27L12.63 54.81L21.59 51.6C19.79 58.12 19.14 63.6 19.14 63.6L31.89 63.39L35.26 72.54L39.21 72.2L39.97 63.25L41.25 63.23L42.01 72.2L45.96 72.54L49.44 63.09L63.11 62.87C63.11 62.87 61.15 55.62 57.42 47.96C60.21 48.79 63.8 49.87 64.37 50.05C65.33 50.35 67.94 38.15 67.94 38.15L63.14 36.66Z" fill="#DF4F3E" fill-opacity="1.000000" fill-rule="nonzero"/>
		<path d="M37.44 41.39L38.63 62.13L18.15 62.18L18.57 66.35L64.37 64.98L63.92 60.78L41.12 61.7C41.12 61.7 40.42 40.6 39.79 40.71C39.16 40.81 37.44 41.39 37.44 41.39Z" fill="#FFFFFF" fill-opacity="1.000000" fill-rule="nonzero"/>
		<path d="M18.57 66.51C18.48 66.51 18.41 66.45 18.4 66.36L17.98 62.2C17.98 62.15 17.99 62.11 18.02 62.07C18.06 62.04 18.1 62.02 18.15 62.02L38.46 61.96L37.28 41.4C37.27 41.32 37.32 41.26 37.39 41.23C37.46 41.21 39.12 40.65 39.76 40.55C39.81 40.54 39.89 40.56 39.92 40.59C40.55 41.1 41.12 56.53 41.28 61.53L63.91 60.62C64 60.62 64.07 60.68 64.08 60.76L64.54 64.96C64.54 65 64.53 65.05 64.5 65.08C64.47 65.12 64.42 65.14 64.38 65.14L18.57 66.51C18.57 66.51 18.57 66.51 18.57 66.51ZM18.33 62.34L18.72 66.18L64.19 64.82L63.77 60.95L41.13 61.87C41.09 61.87 41.05 61.85 41.01 61.82C40.98 61.79 40.96 61.75 40.96 61.71C40.7 53.83 40.16 41.97 39.73 40.89C39.17 41 37.99 41.38 37.61 41.51L38.79 62.12C38.8 62.16 38.78 62.21 38.75 62.24C38.72 62.27 38.67 62.29 38.63 62.29L18.33 62.34Z" fill="#241726" fill-opacity="1.000000" fill-rule="nonzero"/>
		<path d="M23.39 16.76C23.39 16.76 34.98 9.49 40.33 13.71C45.67 17.93 57.81 27.98 37.67 34.55C17.53 41.12 18.47 19.99 23.39 16.76Z" fill="#E38B72" fill-opacity="1.000000" fill-rule="nonzero"/>
		<path d="M23.83 18.78C23.83 18.78 17.34 29.55 27.05 33.92C36.76 38.28 28.67 24.99 35.84 24.92C43.02 24.85 42.5 33.95 45.62 28.5C50.05 20.78 37.83 14.84 39.66 14.56C41.49 14.28 42.75 13.79 43.3 14.86C44.92 18.02 63.84 20.77 61.73 31.32C59.62 41.87 53.15 49.47 34.58 50.03C16.01 50.59 11.01 38.77 15.8 29.91C20.58 21.05 18.07 19.5 19.62 19.36C21.16 19.22 23.83 18.78 23.83 18.78Z" fill="#F4F1E3" fill-opacity="1.000000" fill-rule="nonzero"/>
		<path d="M36.58 27.2C36.03 27.2 34.53 26.03 33.88 25.51C33.81 25.45 33.8 25.35 33.86 25.28C33.91 25.21 34.02 25.2 34.09 25.25C35.02 26.01 36.15 26.79 36.5 26.87C36.48 26.35 35.46 23.92 34.43 21.73C34.39 21.65 34.43 21.55 34.51 21.51C34.59 21.48 34.69 21.51 34.73 21.59C35.42 23.07 37.02 26.56 36.8 27.06C36.78 27.12 36.73 27.16 36.67 27.18C36.64 27.19 36.61 27.2 36.58 27.2Z" fill="#241726" fill-opacity="1.000000" fill-rule="nonzero"/>
		<path d="M37.37 32.12C37.27 32.12 37.15 32.09 37.01 32.02C35.46 31.13 33.9 28.03 33.84 27.9C33.8 27.82 33.83 27.72 33.91 27.68C33.99 27.64 34.09 27.67 34.13 27.75C34.15 27.78 35.71 30.89 37.18 31.73C37.34 31.82 37.42 31.79 37.47 31.76C38.08 31.37 38.01 28.32 37.83 26.49C37.82 26.39 37.89 26.31 37.98 26.31C38.07 26.3 38.15 26.36 38.16 26.45C38.21 26.96 38.62 31.41 37.65 32.04C37.58 32.08 37.49 32.12 37.37 32.12Z" fill="#241726" fill-opacity="1.000000" fill-rule="nonzero"/>
		<path d="M28.43 26.63C26.49 26.63 25.53 22.87 25.48 22.71C25.46 22.62 25.52 22.53 25.6 22.51C25.69 22.49 25.78 22.54 25.8 22.63C25.81 22.66 26.78 26.44 28.52 26.3C28.81 26.28 29.02 26.17 29.15 25.95C29.72 25.04 28.81 22.75 28.8 22.73C28.76 22.64 28.8 22.55 28.89 22.51C28.97 22.48 29.07 22.52 29.1 22.61C29.14 22.71 30.08 25.07 29.43 26.12C29.24 26.43 28.94 26.6 28.54 26.63C28.5 26.63 28.46 26.63 28.43 26.63Z" fill="#241726" fill-opacity="1.000000" fill-rule="nonzero"/>
		<path d="M39.92 23.69C39.86 23.69 39.79 23.69 39.72 23.67C37.97 23.3 37.53 20.08 37.51 19.95C37.5 19.86 37.56 19.77 37.65 19.76C37.74 19.75 37.82 19.81 37.83 19.9C37.84 19.93 38.27 23.03 39.78 23.35C40.01 23.4 40.11 23.33 40.16 23.27C40.6 22.77 40.06 20.64 39.62 19.41C39.59 19.33 39.64 19.23 39.72 19.2C39.81 19.17 39.9 19.22 39.93 19.3C40.06 19.64 41.12 22.67 40.41 23.48C40.32 23.59 40.17 23.69 39.92 23.69Z" fill="#241726" fill-opacity="1.000000" fill-rule="nonzero"/>
		<path d="M27.82 28.24C28.25 28.96 28.01 29.89 27.3 30.31C26.58 30.74 25.65 30.51 25.22 29.79C24.79 29.08 25.02 28.15 25.74 27.72C26.46 27.29 27.39 27.52 27.82 28.24Z" fill="#DF4F3E" fill-opacity="1.000000" fill-rule="evenodd"/>
		<path d="M44.49 23.53C44.49 24.36 43.82 25.04 42.98 25.04C42.15 25.04 41.47 24.36 41.47 23.53C41.47 22.69 42.15 22.01 42.98 22.01C43.82 22.01 44.49 22.69 44.49 23.53Z" fill="#DF4F3E" fill-opacity="1.000000" fill-rule="evenodd"/>
		<path d="M37.39 12.29C37.39 12.29 33.72 6.35 27.57 3.25C21.42 0.16 12.42 10.78 12.42 10.78L20.51 8.53C20.51 8.53 18.98 16.01 19.62 16.83C20.25 17.65 37.39 12.29 37.39 12.29Z" fill="#DF4F3E" fill-opacity="1.000000" fill-rule="nonzero"/>
		<path d="M13.81 10.87C13.81 12.07 12.84 13.03 11.65 13.03C10.46 13.03 9.49 12.07 9.49 10.87C9.49 9.68 10.46 8.71 11.65 8.71C12.84 8.71 13.81 9.68 13.81 10.87Z" fill="#FFFFFF" fill-opacity="1.000000" fill-rule="evenodd"/>
		<path d="M11.65 13.2C10.37 13.2 9.32 12.15 9.32 10.87C9.32 9.59 10.37 8.55 11.65 8.55C12.93 8.55 13.97 9.59 13.97 10.87C13.97 12.15 12.93 13.2 11.65 13.2ZM11.65 8.88C10.55 8.88 9.65 9.77 9.65 10.87C9.65 11.97 10.55 12.87 11.65 12.87C12.75 12.87 13.64 11.97 13.64 10.87C13.64 9.77 12.75 8.88 11.65 8.88Z" fill="#241726" fill-opacity="1.000000" fill-rule="nonzero"/>
		<path d="M18.57 16.39C18.57 16.39 39.06 8.61 40.74 10.37C42.43 12.14 43.3 14.86 43.3 14.86C43.3 14.86 19.45 22.7 18.96 21.66C18.47 20.63 18.57 16.39 18.57 16.39Z" fill="#FFFFFF" fill-opacity="1.000000" fill-rule="nonzero"/>
		<path d="M19.3 21.92C18.9 21.92 18.85 21.82 18.81 21.73C18.31 20.67 18.4 16.56 18.4 16.38C18.4 16.32 18.45 16.26 18.51 16.24C20.62 15.44 39.15 8.47 40.86 10.26C42.55 12.03 43.42 14.7 43.45 14.81C43.48 14.89 43.44 14.99 43.35 15.01C43.29 15.03 37.32 17 31.36 18.81C22.9 21.38 20.2 21.92 19.3 21.92ZM19.1 21.57C20.04 22.04 34.22 17.67 43.09 14.75C42.88 14.16 42.03 11.96 40.62 10.49C39.45 9.26 26.93 13.4 18.73 16.5C18.72 17.17 18.68 20.64 19.1 21.57Z" fill="#241726" fill-opacity="1.000000" fill-rule="nonzero"/>
		<path d="M20.13 24.43C21 25.3 21 26.71 20.13 27.58C19.26 28.45 17.85 28.45 16.99 27.58C16.12 26.71 16.12 25.3 16.99 24.43C17.85 23.56 19.26 23.56 20.13 24.43Z" fill="#E38B72" fill-opacity="1.000000" fill-rule="evenodd"/>
		<path d="M49.57 17.8C49.57 19.03 48.58 20.03 47.35 20.03C46.12 20.03 45.12 19.03 45.12 17.8C45.12 16.57 46.12 15.58 47.35 15.58C48.58 15.58 49.57 16.57 49.57 17.8Z" fill="#E38B72" fill-opacity="1.000000" fill-rule="evenodd"/>
		<path d="M19.22 26.89C19.14 26.89 19.07 26.83 19.05 26.75C18.88 25.63 18.57 25.32 18.34 25.24C17.98 25.13 17.58 25.55 17.58 25.55C17.52 25.62 17.41 25.62 17.35 25.56C17.28 25.5 17.28 25.4 17.34 25.33C17.36 25.31 17.88 24.76 18.43 24.93C18.9 25.07 19.22 25.67 19.38 26.7C19.39 26.79 19.33 26.87 19.24 26.89C19.23 26.89 19.23 26.89 19.22 26.89Z" fill="#241726" fill-opacity="1.000000" fill-rule="nonzero"/>
		<path d="M47.02 19.3C46.95 19.3 46.88 19.25 46.86 19.18C46.56 18.14 46.59 17.37 46.94 16.89C47.28 16.45 47.77 16.44 47.79 16.44C47.88 16.44 47.96 16.52 47.96 16.61C47.96 16.7 47.88 16.77 47.79 16.77C47.78 16.77 47.43 16.78 47.2 17.1C46.92 17.48 46.91 18.17 47.18 19.09C47.2 19.17 47.15 19.27 47.07 19.29C47.05 19.29 47.03 19.3 47.02 19.3Z" fill="#241726" fill-opacity="1.000000" fill-rule="nonzero"/>
		<path d="M18.05 5.59C18.05 5.59 20.16 8.39 22.97 7.33C25.78 6.28 24.73 3.32 26.56 6.14C28.39 8.95 32.93 7.05 32.87 6.99C32.8 6.93 29.23 2.9 26.21 1.99C23.18 1.07 18.05 5.59 18.05 5.59Z" fill="#F4F1E3" fill-opacity="1.000000" fill-rule="nonzero"/>
		<path d="M18.15 58.22C18.15 58.22 21.18 59.77 20.17 62.6C19.15 65.42 13.59 67.11 14.72 65.45C15.41 64.45 18.52 63.5 18.52 63.5C18.52 63.5 14.45 64.84 13.67 63.97C13.25 63.5 17.55 62.81 17.72 62.81C17.88 62.8 15.25 63.13 14.62 62.18C13.99 61.23 17.66 62.97 18.15 61.12C18.63 59.28 17.31 59.38 17.31 59.38L18.15 58.22Z" fill="#E38B72" fill-opacity="1.000000" fill-rule="nonzero"/>
		<path d="M20.53 55.86C20.53 55.86 59.68 52.99 59.75 53.2C59.82 53.42 60.8 55.88 60.8 55.88L20.11 57.85L20.53 55.86Z" fill="#241726" fill-opacity="1.000000" fill-rule="nonzero"/>
		<path d="M35.68 53.53L43.02 52.9L43.02 58.22L36.43 58.89L35.68 53.53Z" fill="#E1AF01" fill-opacity="1.000000" fill-rule="nonzero"/>
		<path d="M37.51 54.69L41.18 54.38L41.18 57.04L37.89 57.37L37.51 54.69Z" fill="#241726" fill-opacity="1.000000" fill-rule="nonzero"/>
		<path d="M20.51 8.69C20.44 8.69 20.37 8.65 20.35 8.57C20.33 8.49 20.38 8.39 20.47 8.37C21.42 8.11 23.48 8.21 23.57 8.22C23.66 8.22 23.73 8.3 23.72 8.39C23.72 8.48 23.64 8.56 23.55 8.55C23.53 8.55 21.45 8.44 20.55 8.69C20.54 8.69 20.52 8.69 20.51 8.69Z" fill="#241726" fill-opacity="1.000000" fill-rule="nonzero"/>
		<path d="M35.44 14.53C35.42 14.53 35.4 14.53 35.38 14.52C35.29 14.48 35.26 14.38 35.3 14.3C35.48 13.91 35.71 13.69 35.98 13.65C36.39 13.59 36.72 13.96 36.73 13.98C36.79 14.04 36.78 14.15 36.71 14.21C36.65 14.27 36.54 14.26 36.48 14.19C36.42 14.12 36.22 13.95 36.03 13.97C35.83 14 35.68 14.24 35.59 14.44C35.57 14.5 35.51 14.53 35.44 14.53Z" fill="#241726" fill-opacity="1.000000" fill-rule="nonzero"/>
		<path d="M37.19 15.52C37.17 15.52 37.14 15.51 37.12 15.5C37.04 15.47 37 15.37 37.04 15.29C37.22 14.89 37.45 14.67 37.73 14.63C38.14 14.57 38.46 14.94 38.48 14.96C38.54 15.03 38.53 15.13 38.46 15.19C38.39 15.25 38.29 15.24 38.23 15.17C38.17 15.1 37.96 14.93 37.78 14.96C37.58 14.99 37.43 15.23 37.34 15.42C37.31 15.48 37.25 15.52 37.19 15.52Z" fill="#241726" fill-opacity="1.000000" fill-rule="nonzero"/>
		<path d="M33.4 15.01C33.37 15.01 33.35 15 33.33 14.99C33.25 14.95 33.21 14.86 33.25 14.77C33.43 14.38 33.66 14.16 33.94 14.12C34.35 14.06 34.67 14.43 34.68 14.45C34.74 14.52 34.73 14.62 34.66 14.68C34.6 14.74 34.49 14.73 34.43 14.66C34.37 14.59 34.18 14.41 33.98 14.44C33.78 14.47 33.64 14.71 33.55 14.91C33.52 14.97 33.46 15.01 33.4 15.01Z" fill="#241726" fill-opacity="1.000000" fill-rule="nonzero"/>
		<path d="M35.13 15.9C35.1 15.9 35.08 15.89 35.06 15.88C34.98 15.84 34.94 15.75 34.98 15.66C35.16 15.27 35.39 15.05 35.67 15.01C36.08 14.95 36.4 15.32 36.41 15.34C36.47 15.41 36.46 15.51 36.39 15.57C36.33 15.63 36.22 15.62 36.16 15.55C36.1 15.48 35.9 15.3 35.71 15.34C35.51 15.36 35.36 15.6 35.28 15.8C35.25 15.86 35.19 15.9 35.13 15.9Z" fill="#241726" fill-opacity="1.000000" fill-rule="nonzero"/>
		<path d="M33.01 16.58C32.99 16.58 32.96 16.58 32.94 16.57C32.86 16.53 32.82 16.43 32.86 16.35C33.04 15.96 33.27 15.74 33.55 15.7C33.96 15.64 34.28 16.01 34.29 16.02C34.35 16.09 34.34 16.19 34.28 16.25C34.21 16.31 34.1 16.31 34.05 16.24C33.98 16.17 33.79 15.99 33.59 16.02C33.39 16.05 33.25 16.29 33.16 16.49C33.13 16.55 33.07 16.58 33.01 16.58Z" fill="#241726" fill-opacity="1.000000" fill-rule="nonzero"/>
		<path d="M62.87 36.08L62.68 37.81L68.37 39.64L69.08 37.66L62.87 36.08Z" fill="#FFFFFF" fill-opacity="1.000000" fill-rule="nonzero"/>
		<path d="M68.37 39.8C68.35 39.8 68.34 39.8 68.32 39.79L62.63 37.97C62.56 37.95 62.51 37.87 62.52 37.8L62.7 36.07C62.71 36.02 62.74 35.98 62.77 35.95C62.81 35.92 62.86 35.91 62.91 35.92L69.12 37.5C69.17 37.51 69.2 37.54 69.23 37.58C69.25 37.62 69.25 37.67 69.24 37.72L68.52 39.69C68.5 39.76 68.44 39.8 68.37 39.8ZM62.86 37.7L68.27 39.43L68.87 37.77L63.01 36.29L62.86 37.7Z" fill="#241726" fill-opacity="1.000000" fill-rule="nonzero"/>
		<path d="M18.34 55.89L14.49 60.61L16.03 61.7L20.37 56.6L18.34 55.89Z" fill="#FFFFFF" fill-opacity="1.000000" fill-rule="nonzero"/>
		<path d="M16.03 61.87C16 61.87 15.97 61.86 15.94 61.84L14.4 60.75C14.36 60.72 14.34 60.68 14.33 60.64C14.33 60.59 14.34 60.55 14.37 60.51L18.21 55.79C18.25 55.74 18.33 55.72 18.39 55.74L20.42 56.45C20.47 56.46 20.51 56.51 20.52 56.56C20.54 56.61 20.53 56.67 20.49 56.71L16.16 61.81C16.13 61.85 16.08 61.87 16.03 61.87ZM14.73 60.58L16.01 61.48L20.09 56.68L18.39 56.09L14.73 60.58Z" fill="#241726" fill-opacity="1.000000" fill-rule="nonzero"/>
		<path d="M34.3 48.89C34.06 48.89 33.82 48.87 33.56 48.83C32.1 48.58 31.12 47.98 30.5 47.3C30.49 47.31 30.49 47.32 30.48 47.33C29.97 47.94 28.82 48.85 26.75 48.2C24.89 47.62 24.05 46.6 23.72 45.65C23.33 46.13 22.85 46.54 22.32 46.74C21.73 46.96 20.84 46.98 19.98 45.86C19.07 44.69 18.91 43.72 18.98 43.03C18.76 43.06 18.53 43.07 18.29 43.05C17.3 42.99 16.55 42.48 16.18 41.62C15.59 40.22 16.09 38.87 16.77 38.03C16.3 37.74 15.75 37.17 15.63 36.1C15.47 34.75 16.21 33.58 17.06 32.84C16.66 32.55 16.35 32.14 16.18 31.63C15.96 30.99 15.98 30.44 16.24 29.99C16.68 29.23 17.64 29.06 17.68 29.05C17.77 29.03 17.85 29.09 17.87 29.18C17.89 29.27 17.83 29.36 17.74 29.37C17.73 29.38 16.89 29.53 16.52 30.15C16.31 30.52 16.3 30.98 16.49 31.52C16.68 32.08 17.01 32.42 17.32 32.62C17.72 32.32 18.12 32.12 18.45 32.03C19.06 31.88 19.24 32.15 19.29 32.28C19.39 32.52 19.37 32.75 19.22 32.93C19 33.21 18.52 33.33 18 33.24C17.77 33.2 17.55 33.12 17.35 33.02C16.55 33.7 15.81 34.8 15.95 36.06C16.07 37.04 16.58 37.54 16.99 37.78C17.2 37.56 17.42 37.4 17.62 37.29C18.09 37.05 18.49 37.11 18.7 37.45C18.88 37.75 18.78 37.97 18.7 38.07C18.49 38.36 17.94 38.45 17.38 38.3C17.3 38.28 17.19 38.25 17.06 38.19C16.43 38.94 15.95 40.21 16.48 41.49C16.89 42.45 17.7 42.69 18.31 42.73C18.56 42.74 18.8 42.72 19.04 42.68C19.08 42.52 19.13 42.38 19.18 42.26C19.44 41.66 19.94 41.22 20.4 41.17C20.62 41.15 20.81 41.23 20.92 41.4C21.05 41.58 21.05 41.81 20.92 42.02C20.71 42.4 20.08 42.79 19.32 42.96C19.23 43.59 19.35 44.51 20.24 45.66C20.73 46.31 21.28 46.59 21.86 46.52C22.54 46.43 23.17 45.86 23.62 45.26C23.52 44.76 23.56 44.31 23.65 43.98C23.81 43.43 24.13 43.12 24.45 43.2C24.52 43.22 24.69 43.29 24.7 43.57C24.72 43.95 24.44 44.67 23.97 45.33C24.2 46.25 24.97 47.3 26.84 47.89C28.74 48.48 29.78 47.66 30.23 47.12C30.25 47.1 30.27 47.07 30.29 47.05C29.82 46.44 29.64 45.81 29.66 45.33C29.68 44.74 30 44.34 30.49 44.3C30.76 44.27 30.98 44.4 31.12 44.66C31.38 45.16 31.26 46.19 30.7 47.04C31.26 47.68 32.2 48.26 33.62 48.5C35.73 48.87 36.94 47.46 37.36 46.83C37.48 46.65 37.59 46.47 37.67 46.29C37.22 45.63 37.01 44.96 37.16 44.56C37.24 44.34 37.41 44.2 37.65 44.17C37.89 44.14 38.1 44.23 38.22 44.43C38.45 44.81 38.37 45.52 38.05 46.26C38.15 46.39 38.27 46.53 38.4 46.67C38.93 47.24 40.37 48.5 42.33 47.95C44.09 47.45 44.95 45.94 45.18 44.64C44.48 44.14 44.01 43.56 43.93 43.1C43.85 42.71 44.05 42.42 44.45 42.32C44.93 42.2 45.32 42.51 45.49 43.15C45.58 43.51 45.6 43.97 45.53 44.48C46.42 45.06 47.68 45.52 49.09 45.33C50.31 45.17 50.83 44.07 51.04 43.18C51.19 42.59 51.23 41.95 51.2 41.36C50.35 40.77 49.73 40 49.62 39.48C49.54 39.1 49.71 38.91 49.82 38.83C50.09 38.65 50.38 38.64 50.64 38.82C51.11 39.14 51.43 40.1 51.51 41.18C52 41.51 52.56 41.76 53.12 41.85C54.21 42.04 55.08 41.63 55.71 40.62C56.77 38.92 56.27 37.6 55.82 36.92C55.44 36.93 55.08 36.88 54.78 36.78C54.21 36.59 53.85 36.23 53.83 35.82C53.81 35.64 53.9 35.49 54.06 35.43C54.46 35.27 55.27 35.71 55.86 36.41C55.9 36.46 55.94 36.52 55.99 36.58C56.9 36.51 57.96 36.05 58.82 35.04C59.9 33.76 59.29 31.98 58.4 30.88C58.12 31.04 57.87 31.08 57.72 31.09C57.21 31.11 56.72 30.85 56.56 30.47C56.46 30.21 56.52 29.96 56.72 29.76C57.05 29.46 57.64 29.65 58.26 30.25C58.33 30.31 58.39 30.38 58.46 30.45C58.81 30.15 59.12 29.64 59.33 28.97C59.88 27.2 58.68 25.79 57.54 25.23C57.43 25.6 57.21 25.85 57.06 25.97C56.6 26.38 55.92 26.5 55.54 26.23C55.42 26.14 55.15 25.86 55.39 25.29C55.65 24.68 56.38 24.48 57.27 24.77C57.28 24.42 57.17 24.03 56.94 23.6C56.19 22.21 54.93 21.79 53.98 21.8C53.97 21.92 53.94 22.04 53.9 22.16C53.72 22.72 53.3 23.14 52.9 23.14C52.66 23.14 52.46 23 52.36 22.73C52.21 22.32 52.43 21.92 52.95 21.69C53.15 21.59 53.4 21.52 53.66 21.49C53.64 21.12 53.47 20.65 52.91 20.22C51.13 18.85 49.42 20.46 49.35 20.53C49.28 20.59 49.18 20.59 49.12 20.53C49.05 20.46 49.06 20.36 49.12 20.29C49.14 20.27 51.1 18.42 53.11 19.96C53.65 20.37 53.95 20.91 53.99 21.47C55.1 21.45 56.45 22.01 57.23 23.45C57.55 24.04 57.63 24.52 57.6 24.9C58.88 25.49 60.27 27.06 59.64 29.07C59.38 29.91 59.02 30.41 58.67 30.69C59.59 31.84 60.33 33.76 59.07 35.25C58.21 36.27 57.14 36.77 56.19 36.89C56.66 37.67 57.08 39.05 55.99 40.79C55.11 42.2 53.92 42.32 53.07 42.18C52.53 42.09 52 41.87 51.53 41.58C51.54 42.14 51.49 42.72 51.36 43.25C51.02 44.66 50.23 45.52 49.13 45.66C47.74 45.84 46.43 45.43 45.47 44.84C45.18 46.21 44.26 47.75 42.42 48.27C40.28 48.87 38.73 47.5 38.16 46.89C38.06 46.79 37.97 46.69 37.89 46.59C37.81 46.73 37.73 46.88 37.63 47.02C37.23 47.62 36.15 48.89 34.3 48.89ZM30.56 44.62C30.54 44.62 30.53 44.62 30.52 44.62C30.2 44.65 30 44.92 29.98 45.35C29.97 45.74 30.12 46.26 30.48 46.77C30.93 46.04 31.03 45.21 30.82 44.81C30.74 44.65 30.64 44.62 30.56 44.62ZM37.74 44.5C37.73 44.5 37.71 44.5 37.69 44.5C37.58 44.51 37.5 44.57 37.47 44.67C37.38 44.91 37.5 45.39 37.83 45.93C38.05 45.35 38.08 44.84 37.94 44.61C37.89 44.53 37.83 44.5 37.74 44.5ZM24.35 43.51C24.26 43.51 24.07 43.69 23.97 44.07C23.91 44.28 23.87 44.55 23.89 44.85C24.03 44.62 24.14 44.41 24.22 44.22C24.42 43.73 24.38 43.54 24.36 43.51C24.36 43.51 24.35 43.51 24.35 43.51ZM44.64 42.63C44.61 42.63 44.57 42.63 44.53 42.64C44.3 42.7 44.21 42.82 44.25 43.04C44.31 43.36 44.67 43.83 45.23 44.27C45.27 43.88 45.25 43.52 45.17 43.23C45.11 43 44.96 42.63 44.64 42.63ZM20.46 41.5C20.45 41.5 20.44 41.5 20.43 41.5C20.14 41.53 19.72 41.84 19.48 42.39C19.45 42.45 19.43 42.52 19.4 42.6C19.99 42.44 20.48 42.14 20.64 41.86C20.72 41.72 20.68 41.63 20.65 41.58C20.63 41.56 20.59 41.5 20.46 41.5ZM50.25 39.02C50.17 39.02 50.09 39.05 50.01 39.1C49.98 39.12 49.89 39.18 49.94 39.41C50.03 39.83 50.51 40.43 51.16 40.93C51.06 40.04 50.78 39.32 50.45 39.09C50.38 39.04 50.32 39.02 50.25 39.02ZM17.3 37.93C17.37 37.96 17.42 37.97 17.46 37.98C17.93 38.11 18.33 38.03 18.44 37.87C18.46 37.85 18.51 37.78 18.42 37.62C18.27 37.38 17.95 37.5 17.77 37.59C17.62 37.66 17.46 37.78 17.3 37.93ZM54.25 35.72C54.22 35.72 54.2 35.73 54.18 35.74C54.16 35.74 54.15 35.75 54.15 35.8C54.17 36.07 54.45 36.32 54.88 36.46C55.09 36.53 55.32 36.58 55.58 36.59C55.06 35.98 54.49 35.72 54.25 35.72ZM17.65 32.79C17.82 32.87 17.97 32.9 18.05 32.91C18.45 32.98 18.82 32.9 18.97 32.73C19.03 32.64 19.04 32.53 18.99 32.41C18.93 32.26 18.63 32.33 18.53 32.35C18.28 32.42 17.97 32.57 17.65 32.79ZM57.11 29.95C57.04 29.95 56.99 29.97 56.95 30C56.84 30.1 56.81 30.21 56.87 30.34C56.96 30.56 57.29 30.79 57.7 30.76C57.87 30.75 58.03 30.71 58.18 30.63C58.13 30.58 58.08 30.53 58.04 30.49C57.68 30.15 57.33 29.95 57.11 29.95ZM56.51 24.97C56.15 24.97 55.83 25.09 55.69 25.42C55.62 25.6 55.56 25.84 55.74 25.96C55.96 26.12 56.46 26.06 56.85 25.73C57.04 25.56 57.17 25.35 57.23 25.11C57 25.02 56.75 24.97 56.51 24.97ZM53.64 21.83C53.43 21.86 53.24 21.91 53.08 21.98C52.92 22.06 52.54 22.28 52.67 22.61C52.75 22.82 52.86 22.82 52.9 22.82C53.11 22.81 53.44 22.52 53.59 22.06C53.61 22 53.63 21.92 53.64 21.83Z" fill="#241726" fill-opacity="1.000000" fill-rule="nonzero"/>
		<path d="M34.01 71.8L39.53 71.38L39.35 72.95L34.71 73.31L34.01 71.8Z" fill="#FFFFFF" fill-opacity="1.000000" fill-rule="nonzero"/>
		<path d="M39.65 71.26C39.62 71.23 39.57 71.21 39.52 71.21L34 71.64C33.95 71.65 33.9 71.68 33.87 71.72C33.85 71.77 33.84 71.83 33.87 71.87L34.56 73.38C34.59 73.44 34.65 73.47 34.71 73.47C34.71 73.47 34.72 73.47 34.72 73.47L35.75 73.39C35.98 75.12 29.73 75.4 33.69 76.21C37.29 76.94 37.4 74.27 37.37 73.55L37.53 75.61L38.83 75.22L38.48 73.19L39.36 73.12C39.44 73.11 39.5 73.05 39.51 72.97L39.69 71.4C39.7 71.35 39.68 71.3 39.65 71.26ZM39.2 72.8L34.81 73.14L34.26 71.95L39.35 71.56L39.2 72.8Z" fill="#241726" fill-opacity="1.000000" fill-rule="nonzero"/>
		<path d="M41.52 70.92L47.09 71.14L46.67 72.77L41.52 72.95L41.52 70.92Z" fill="#FFFFFF" fill-opacity="1.000000" fill-rule="nonzero"/>
		<path d="M45.49 72.98L46.68 72.94C46.75 72.93 46.81 72.88 46.83 72.81L47.25 71.18C47.26 71.14 47.25 71.08 47.22 71.04C47.19 71.01 47.15 70.98 47.1 70.98L41.53 70.75C41.49 70.76 41.44 70.77 41.41 70.8C41.38 70.83 41.36 70.87 41.36 70.92L41.36 72.95C41.36 73 41.38 73.04 41.41 73.07C41.44 73.1 41.48 73.12 41.53 73.12C41.53 73.12 41.53 73.12 41.53 73.12L42.73 73.08L42.39 75.22L43.69 75.61L43.86 73.55C43.82 74.27 43.93 76.94 47.53 76.21C51.55 75.39 45.11 75 45.49 72.98ZM41.69 71.09L46.88 71.3L46.54 72.61L41.69 72.78L41.69 71.09Z" fill="#241726" fill-opacity="1.000000" fill-rule="nonzero"/>
	</g>
</svg>
